<!--?xml version="1.0" standalone="no"?-->
              <svg id="sw-js-blob-svg" viewBox="0 0 100 100" xmlns="http://www.w3.org/2000/svg" version="1.1">
                    <defs> 
                        <linearGradient id="sw-gradient" x1="0" x2="1" y1="1" y2="0">
                            <stop id="stop1" stop-color="rgba(248, 117, 55, 1)" offset="0%"></stop>
                            <stop id="stop2" stop-color="rgba(251, 168, 31, 1)" offset="100%"></stop>
                        </linearGradient>
                    </defs>
                <path fill="url(#sw-gradient)" d="M5.9,-17.1C5.9,-10.2,3.1,-5.2,9,-2.6C14.9,-0.1,29.6,-0.1,32.2,1.5C34.7,3,25.2,6,20.6,10.8C16,15.6,16.2,22.1,13.6,20.6C11,19.1,5.5,9.6,1.2,7.6C-3.2,5.6,-6.4,11.1,-9.6,12.9C-12.8,14.8,-16,12.9,-19.9,10.2C-23.8,7.4,-28.4,3.7,-28,0.2C-27.6,-3.3,-22.2,-6.5,-17.2,-7.3C-12.2,-8,-7.4,-6.3,-4.6,-11.7C-1.8,-17,-0.9,-29.5,1,-31.2C2.9,-33,5.8,-24.1,5.9,-17.1Z" width="100%" height="100%" transform="translate(50 50)" stroke-width="0" style="transition: all 0.3s ease 0s;"></path>
              </svg>